<svg xmlns="http://www.w3.org/2000/svg" width="800" height="300" viewBox="0 0 800 300"><rect width="800" height="300" fill="#ffffff"/><style>text{font-family:system-ui,-apple-system,'Segoe UI',Roboto,'PingFang SC','Microsoft YaHei','Noto Sans CJK SC',sans-serif}.g{stroke:#e8e8e8;stroke-width:1}.a{stroke:#999;stroke-width:1}.t{font-size:10px;fill:#666}.m{font-size:10px;text-anchor:middle;fill:#666}.e{font-size:10px;text-anchor:end;fill:#666}.l{font-size:11px;fill:#333}.tt{font-size:14px;font-weight:600;text-anchor:middle;fill:#444}.em{font-size:13px;text-anchor:middle;fill:#999}</style>
<text class="tt" x="400.0" y="24">代理总量与存活率（近 7 天）</text>
<line class="g" x1="46" y1="266" x2="754" y2="266"/><text class="e" x="40" y="269">0</text>
<line class="g" x1="46" y1="217.6" x2="754" y2="217.6"/><text class="e" x="40" y="220.6">5000</text>
<line class="g" x1="46" y1="169.2" x2="754" y2="169.2"/><text class="e" x="40" y="172.2">10000</text>
<line class="g" x1="46" y1="120.8" x2="754" y2="120.8"/><text class="e" x="40" y="123.8">15000</text>
<line class="g" x1="46" y1="72.4" x2="754" y2="72.4"/><text class="e" x="40" y="75.4">20000</text>
<line class="g" x1="46" y1="24" x2="754" y2="24"/><text class="e" x="40" y="27">25000</text>
<text class="e" x="792" y="269">98%</text>
<text class="e" x="792" y="228.7">98.25%</text>
<text class="e" x="792" y="188.3">98.5%</text>
<text class="e" x="792" y="148">98.75%</text>
<text class="e" x="792" y="107.7">99%</text>
<text class="e" x="792" y="67.3">99.25%</text>
<text class="e" x="792" y="27">99.5%</text>
<line class="a" x1="754" y1="24" x2="754" y2="266"/>
<line class="a" x1="46" y1="24" x2="46" y2="266"/><line class="a" x1="46" y1="266" x2="754" y2="266"/>
<polyline fill="none" stroke="#4c78a8" stroke-width="2" stroke-linejoin="round" points="46,76.5 53.1,76.5 119.1,76.7 130.7,76.7 140.7,78.3 147.9,78.3 156.8,78.1 180.4,78.2 201.4,77.9 214.8,77.9 233.0,78.1 258.1,80.6 301.7,80.3 316.2,80.3 365.8,82.7 382.7,82.7 397.0,82.4 409.8,82.3 419.1,82.3 440.3,82.6 466.0,60.2 486.9,60.7 501.3,60.9 514.0,60.8 529.5,60.8 571.3,62.0 599.8,61.8 623.3,61.5 635.8,61.4 664.5,64.5 710.4,64.9 723.0,64.8 736.5,64.8 752.7,66.9"/>
<circle cx="46" cy="76.5" r="4" fill="transparent"><title>2026-09-16 07:22 · 去重: 19575</title></circle>
<circle cx="119.1" cy="76.7" r="4" fill="transparent"><title>2026-09-17 00:22 · 去重: 19559</title></circle>
<circle cx="130.7" cy="76.7" r="4" fill="transparent"><title>2026-09-17 03:04 · 去重: 19560</title></circle>
<circle cx="147.9" cy="78.3" r="4" fill="transparent"><title>2026-09-17 07:04 · 去重: 19395</title></circle>
<circle cx="180.4" cy="78.2" r="4" fill="transparent"><title>2026-09-17 14:37 · 去重: 19397</title></circle>
<circle cx="214.8" cy="77.9" r="4" fill="transparent"><title>2026-09-17 22:37 · 去重: 19427</title></circle>
<circle cx="233.0" cy="78.1" r="4" fill="transparent"><title>2026-09-18 02:52 · 去重: 19407</title></circle>
<circle cx="301.7" cy="80.3" r="4" fill="transparent"><title>2026-09-18 18:50 · 去重: 19179</title></circle>
<circle cx="365.8" cy="82.7" r="4" fill="transparent"><title>2026-09-19 09:45 · 去重: 18932</title></circle>
<circle cx="397.0" cy="82.4" r="4" fill="transparent"><title>2026-09-19 17:01 · 去重: 18962</title></circle>
<circle cx="409.8" cy="82.3" r="4" fill="transparent"><title>2026-09-19 19:58 · 去重: 18979</title></circle>
<circle cx="440.3" cy="82.6" r="4" fill="transparent"><title>2026-09-20 03:04 · 去重: 18944</title></circle>
<circle cx="486.9" cy="60.7" r="4" fill="transparent"><title>2026-09-20 13:55 · 去重: 21208</title></circle>
<circle cx="514.0" cy="60.8" r="4" fill="transparent"><title>2026-09-20 20:13 · 去重: 21194</title></circle>
<circle cx="529.5" cy="60.8" r="4" fill="transparent"><title>2026-09-20 23:50 · 去重: 21198</title></circle>
<circle cx="599.8" cy="61.8" r="4" fill="transparent"><title>2026-09-21 16:10 · 去重: 21091</title></circle>
<circle cx="635.8" cy="61.4" r="4" fill="transparent"><title>2026-09-22 00:33 · 去重: 21138</title></circle>
<circle cx="710.4" cy="64.9" r="4" fill="transparent"><title>2026-09-22 17:54 · 去重: 20778</title></circle>
<circle cx="723.0" cy="64.8" r="4" fill="transparent"><title>2026-09-22 20:49 · 去重: 20787</title></circle>
<circle cx="752.7" cy="66.9" r="4" fill="transparent"><title>2026-09-23 03:43 · 去重: 20573</title></circle>
<text class="t" x="748.7" y="62.9" text-anchor="end" fill="#4c78a8">20573</text>
<polyline fill="none" stroke="#54a24b" stroke-width="2" stroke-linejoin="round" points="47.3,87.8 54.5,88.0 120.1,89.1 131.7,89.3 141.9,89.4 149.1,90.0 158.0,89.8 181.6,90.5 202.7,90.5 216.0,90.3 234.0,90.8 259.1,92.0 302.7,92.3 317.3,92.4 367.2,94.2 383.9,94.4 398.4,94.5 410.8,94.9 420.5,94.8 441.3,95.1 467.3,84.8 488.3,86.1 502.7,85.6 515.1,85.8 530.9,86.0 572.6,87.1 600.9,88.0 624.4,88.6 636.9,88.6 665.6,89.0 711.8,90.7 724.3,90.4 737.6,90.9 754,90.8"/>
<circle cx="47.3" cy="87.8" r="4" fill="transparent"><title>2026-09-16 07:40 · 存活: 18411</title></circle>
<circle cx="120.1" cy="89.1" r="4" fill="transparent"><title>2026-09-17 00:36 · 存活: 18270</title></circle>
<circle cx="131.7" cy="89.3" r="4" fill="transparent"><title>2026-09-17 03:18 · 存活: 18251</title></circle>
<circle cx="149.1" cy="90.0" r="4" fill="transparent"><title>2026-09-17 07:20 · 存活: 18186</title></circle>
<circle cx="181.6" cy="90.5" r="4" fill="transparent"><title>2026-09-17 14:54 · 存活: 18127</title></circle>
<circle cx="216.0" cy="90.3" r="4" fill="transparent"><title>2026-09-17 22:54 · 存活: 18155</title></circle>
<circle cx="234.0" cy="90.8" r="4" fill="transparent"><title>2026-09-18 03:06 · 存活: 18102</title></circle>
<circle cx="302.7" cy="92.3" r="4" fill="transparent"><title>2026-09-18 19:04 · 存活: 17942</title></circle>
<circle cx="367.2" cy="94.2" r="4" fill="transparent"><title>2026-09-19 10:04 · 存活: 17750</title></circle>
<circle cx="398.4" cy="94.5" r="4" fill="transparent"><title>2026-09-19 17:20 · 存活: 17722</title></circle>
<circle cx="410.8" cy="94.9" r="4" fill="transparent"><title>2026-09-19 20:12 · 存活: 17677</title></circle>
<circle cx="441.3" cy="95.1" r="4" fill="transparent"><title>2026-09-20 03:19 · 存活: 17659</title></circle>
<circle cx="488.3" cy="86.1" r="4" fill="transparent"><title>2026-09-20 14:14 · 存活: 18587</title></circle>
<circle cx="515.1" cy="85.8" r="4" fill="transparent"><title>2026-09-20 20:28 · 存活: 18611</title></circle>
<circle cx="530.9" cy="86.0" r="4" fill="transparent"><title>2026-09-21 00:08 · 存活: 18597</title></circle>
<circle cx="600.9" cy="88.0" r="4" fill="transparent"><title>2026-09-21 16:26 · 存活: 18388</title></circle>
<circle cx="636.9" cy="88.6" r="4" fill="transparent"><title>2026-09-22 00:47 · 存活: 18324</title></circle>
<circle cx="711.8" cy="90.7" r="4" fill="transparent"><title>2026-09-22 18:14 · 存活: 18111</title></circle>
<circle cx="724.3" cy="90.4" r="4" fill="transparent"><title>2026-09-22 21:08 · 存活: 18140</title></circle>
<circle cx="754" cy="90.8" r="4" fill="transparent"><title>2026-09-23 04:02 · 存活: 18099</title></circle>
<text class="t" x="750" y="86.8" text-anchor="end" fill="#54a24b">18099</text>
<polyline fill="none" stroke="#8c564b" stroke-width="2" stroke-dasharray="4,3" stroke-linejoin="round" points="47.3,254.6 54.5,254.4 120.1,253.5 131.7,253.3 141.9,254.9 149.1,254.2 158.0,254.2 181.6,253.6 202.7,253.3 216.0,253.5 234.0,253.2 259.1,254.5 302.7,253.9 317.3,253.7 367.2,254.4 383.9,254.2 398.4,253.9 410.8,253.3 420.5,253.4 441.3,253.5 467.3,241.4 488.3,240.6 502.7,241.1 515.1,240.8 530.9,240.7 572.6,240.9 600.9,239.6 624.4,238.6 636.9,238.6 665.6,241.4 711.8,240.1 724.3,240.1 737.6,239.7 754,241.8"/>
<circle cx="47.3" cy="254.6" r="4" fill="transparent"><title>2026-09-16 07:40 · 死亡: 1176</title></circle>
<circle cx="120.1" cy="253.5" r="4" fill="transparent"><title>2026-09-17 00:36 · 死亡: 1293</title></circle>
<circle cx="131.7" cy="253.3" r="4" fill="transparent"><title>2026-09-17 03:18 · 死亡: 1313</title></circle>
<circle cx="149.1" cy="254.2" r="4" fill="transparent"><title>2026-09-17 07:20 · 死亡: 1219</title></circle>
<circle cx="181.6" cy="253.6" r="4" fill="transparent"><title>2026-09-17 14:54 · 死亡: 1278</title></circle>
<circle cx="216.0" cy="253.5" r="4" fill="transparent"><title>2026-09-17 22:54 · 死亡: 1289</title></circle>
<circle cx="234.0" cy="253.2" r="4" fill="transparent"><title>2026-09-18 03:06 · 死亡: 1319</title></circle>
<circle cx="302.7" cy="253.9" r="4" fill="transparent"><title>2026-09-18 19:04 · 死亡: 1252</title></circle>
<circle cx="367.2" cy="254.4" r="4" fill="transparent"><title>2026-09-19 10:04 · 死亡: 1203</title></circle>
<circle cx="398.4" cy="253.9" r="4" fill="transparent"><title>2026-09-19 17:20 · 死亡: 1249</title></circle>
<circle cx="410.8" cy="253.3" r="4" fill="transparent"><title>2026-09-19 20:12 · 死亡: 1314</title></circle>
<circle cx="441.3" cy="253.5" r="4" fill="transparent"><title>2026-09-20 03:19 · 死亡: 1287</title></circle>
<circle cx="488.3" cy="240.6" r="4" fill="transparent"><title>2026-09-20 14:14 · 死亡: 2625</title></circle>
<circle cx="515.1" cy="240.8" r="4" fill="transparent"><title>2026-09-20 20:28 · 死亡: 2599</title></circle>
<circle cx="530.9" cy="240.7" r="4" fill="transparent"><title>2026-09-21 00:08 · 死亡: 2617</title></circle>
<circle cx="600.9" cy="239.6" r="4" fill="transparent"><title>2026-09-21 16:26 · 死亡: 2730</title></circle>
<circle cx="636.9" cy="238.6" r="4" fill="transparent"><title>2026-09-22 00:47 · 死亡: 2834</title></circle>
<circle cx="711.8" cy="240.1" r="4" fill="transparent"><title>2026-09-22 18:14 · 死亡: 2679</title></circle>
<circle cx="724.3" cy="240.1" r="4" fill="transparent"><title>2026-09-22 21:08 · 死亡: 2679</title></circle>
<circle cx="754" cy="241.8" r="4" fill="transparent"><title>2026-09-23 04:02 · 死亡: 2502</title></circle>
<text class="t" x="750" y="237.8" text-anchor="end" fill="#8c564b">2502</text>
<polyline fill="none" stroke="#f58518" stroke-width="2" stroke-dasharray="4,3" stroke-linejoin="round" points="47.3,88.5 54.5,88.5 120.1,153.1 131.7,72.4 141.9,56.3 149.1,120.8 158.0,88.5 181.6,120.8 202.7,104.7 216.0,56.3 234.0,72.4 259.1,120.8 302.7,136.9 317.3,88.5 367.2,120.8 383.9,104.7 398.4,104.7 410.8,136.9 420.5,104.7 441.3,88.5 467.3,136.9 488.3,169.2 502.7,136.9 515.1,153.1 530.9,153.1 572.6,185.3 600.9,249.9 624.4,249.9 636.9,136.9 665.6,153.1 711.8,249.9 724.3,153.1 737.6,169.2 754,104.7"/>
<circle cx="47.3" cy="88.5" r="4" fill="transparent"><title>2026-09-16 07:40 · 存活率: 99.1</title></circle>
<circle cx="120.1" cy="153.1" r="4" fill="transparent"><title>2026-09-17 00:36 · 存活率: 98.7</title></circle>
<circle cx="131.7" cy="72.4" r="4" fill="transparent"><title>2026-09-17 03:18 · 存活率: 99.2</title></circle>
<circle cx="149.1" cy="120.8" r="4" fill="transparent"><title>2026-09-17 07:20 · 存活率: 98.9</title></circle>
<circle cx="181.6" cy="120.8" r="4" fill="transparent"><title>2026-09-17 14:54 · 存活率: 98.9</title></circle>
<circle cx="216.0" cy="56.3" r="4" fill="transparent"><title>2026-09-17 22:54 · 存活率: 99.3</title></circle>
<circle cx="234.0" cy="72.4" r="4" fill="transparent"><title>2026-09-18 03:06 · 存活率: 99.2</title></circle>
<circle cx="302.7" cy="136.9" r="4" fill="transparent"><title>2026-09-18 19:04 · 存活率: 98.8</title></circle>
<circle cx="367.2" cy="120.8" r="4" fill="transparent"><title>2026-09-19 10:04 · 存活率: 98.9</title></circle>
<circle cx="398.4" cy="104.7" r="4" fill="transparent"><title>2026-09-19 17:20 · 存活率: 99</title></circle>
<circle cx="410.8" cy="136.9" r="4" fill="transparent"><title>2026-09-19 20:12 · 存活率: 98.8</title></circle>
<circle cx="441.3" cy="88.5" r="4" fill="transparent"><title>2026-09-20 03:19 · 存活率: 99.1</title></circle>
<circle cx="488.3" cy="169.2" r="4" fill="transparent"><title>2026-09-20 14:14 · 存活率: 98.6</title></circle>
<circle cx="515.1" cy="153.1" r="4" fill="transparent"><title>2026-09-20 20:28 · 存活率: 98.7</title></circle>
<circle cx="530.9" cy="153.1" r="4" fill="transparent"><title>2026-09-21 00:08 · 存活率: 98.7</title></circle>
<circle cx="600.9" cy="249.9" r="4" fill="transparent"><title>2026-09-21 16:26 · 存活率: 98.1</title></circle>
<circle cx="636.9" cy="136.9" r="4" fill="transparent"><title>2026-09-22 00:47 · 存活率: 98.8</title></circle>
<circle cx="711.8" cy="249.9" r="4" fill="transparent"><title>2026-09-22 18:14 · 存活率: 98.1</title></circle>
<circle cx="724.3" cy="153.1" r="4" fill="transparent"><title>2026-09-22 21:08 · 存活率: 98.7</title></circle>
<circle cx="754" cy="104.7" r="4" fill="transparent"><title>2026-09-23 04:02 · 存活率: 99</title></circle>
<text class="t" x="750" y="100.7" text-anchor="end" fill="#f58518">99</text>
<text class="t" x="46" y="288">2026-09-16 07:22</text>
<text class="m" x="216.0" y="288">2026-09-17 22:54</text>
<text class="m" x="398.4" y="288">2026-09-19 17:20</text>
<text class="m" x="572.6" y="288">2026-09-21 09:51</text>
<text class="e" x="754" y="288">2026-09-23 04:02</text>
<line x1="14" y1="20" x2="32" y2="20" stroke="#4c78a8" stroke-width="2"/><text class="l" x="36" y="23">去重 20573</text><line x1="103.2" y1="20" x2="121.2" y2="20" stroke="#54a24b" stroke-width="2"/><text class="l" x="125.2" y="23">存活 18099</text><line x1="192.4" y1="20" x2="210.4" y2="20" stroke="#8c564b" stroke-width="2" stroke-dasharray="4,3"/><text class="l" x="214.4" y="23">死亡 2502</text><line x1="275.2" y1="20" x2="293.2" y2="20" stroke="#f58518" stroke-width="2" stroke-dasharray="4,3"/><text class="l" x="297.2" y="23">存活率 99</text>
</svg>