<svg xmlns="http://www.w3.org/2000/svg" width="800" height="302" viewBox="0 0 800 302"><rect width="800" height="302" fill="#ffffff"/><style>text{font-family:system-ui,-apple-system,'Segoe UI',Roboto,'PingFang SC','Microsoft YaHei','Noto Sans CJK SC',sans-serif}.g{stroke:#e8e8e8;stroke-width:1}.a{stroke:#999;stroke-width:1}.t{font-size:10px;fill:#666}.m{font-size:10px;text-anchor:middle;fill:#666}.e{font-size:10px;text-anchor:end;fill:#666}.l{font-size:11px;fill:#333}.tt{font-size:14px;font-weight:600;text-anchor:middle;fill:#444}.em{font-size:13px;text-anchor:middle;fill:#999}</style>
<text class="tt" x="400.0" y="24">出口国 Top15（共观测 15832）</text>
<line class="g" x1="46" y1="24" x2="46" y2="294"/>
<line class="g" x1="229.1" y1="24" x2="229.1" y2="294"/>
<line class="g" x1="412.3" y1="24" x2="412.3" y2="294"/>
<line class="g" x1="595.4" y1="24" x2="595.4" y2="294"/>
<text class="e" x="40" y="35">NL</text><rect x="46" y="26" width="662" height="10" fill="#58508d" rx="1.5"/><text class="t" x="712" y="35">3615</text>
<text class="e" x="40" y="53">DE</text><rect x="46" y="44" width="654.5" height="10" fill="#58508d" rx="1.5"/><text class="t" x="704.5" y="53">3574</text>
<text class="e" x="40" y="71">US</text><rect x="46" y="62" width="334.4" height="10" fill="#58508d" rx="1.5"/><text class="t" x="384.4" y="71">1826</text>
<text class="e" x="40" y="89">FI</text><rect x="46" y="80" width="209.3" height="10" fill="#58508d" rx="1.5"/><text class="t" x="259.3" y="89">1143</text>
<text class="e" x="40" y="107">GB</text><rect x="46" y="98" width="203.1" height="10" fill="#58508d" rx="1.5"/><text class="t" x="253.1" y="107">1109</text>
<text class="e" x="40" y="125">JP</text><rect x="46" y="116" width="108.4" height="10" fill="#58508d" rx="1.5"/><text class="t" x="158.4" y="125">592</text>
<text class="e" x="40" y="143">SG</text><rect x="46" y="134" width="91.7" height="10" fill="#58508d" rx="1.5"/><text class="t" x="141.7" y="143">501</text>
<text class="e" x="40" y="161">LV</text><rect x="46" y="152" width="87.9" height="10" fill="#58508d" rx="1.5"/><text class="t" x="137.9" y="161">480</text>
<text class="e" x="40" y="179">FR</text><rect x="46" y="170" width="83.5" height="10" fill="#58508d" rx="1.5"/><text class="t" x="133.5" y="179">456</text>
<text class="e" x="40" y="197">RU</text><rect x="46" y="188" width="59.0" height="10" fill="#58508d" rx="1.5"/><text class="t" x="109.0" y="197">322</text>
<text class="e" x="40" y="215">PL</text><rect x="46" y="206" width="42.7" height="10" fill="#58508d" rx="1.5"/><text class="t" x="92.7" y="215">233</text>
<text class="e" x="40" y="233">HK</text><rect x="46" y="224" width="39.2" height="10" fill="#58508d" rx="1.5"/><text class="t" x="89.2" y="233">214</text>
<text class="e" x="40" y="251">SE</text><rect x="46" y="242" width="38.1" height="10" fill="#58508d" rx="1.5"/><text class="t" x="88.1" y="251">208</text>
<text class="e" x="40" y="269">CH</text><rect x="46" y="260" width="29.8" height="10" fill="#58508d" rx="1.5"/><text class="t" x="79.8" y="269">163</text>
<text class="e" x="40" y="287">ES</text><rect x="46" y="278" width="26.7" height="10" fill="#58508d" rx="1.5"/><text class="t" x="76.7" y="287">146</text>
</svg>