<svg xmlns="http://www.w3.org/2000/svg" width="800" height="302" viewBox="0 0 800 302"><rect width="800" height="302" fill="#ffffff"/><style>text{font-family:system-ui,-apple-system,'Segoe UI',Roboto,'PingFang SC','Microsoft YaHei','Noto Sans CJK SC',sans-serif}.g{stroke:#e8e8e8;stroke-width:1}.a{stroke:#999;stroke-width:1}.t{font-size:10px;fill:#666}.m{font-size:10px;text-anchor:middle;fill:#666}.e{font-size:10px;text-anchor:end;fill:#666}.l{font-size:11px;fill:#333}.tt{font-size:14px;font-weight:600;text-anchor:middle;fill:#444}.em{font-size:13px;text-anchor:middle;fill:#999}</style>
<text class="tt" x="400.0" y="24">出口国 Top15（共观测 19122）</text>
<line class="g" x1="46" y1="24" x2="46" y2="294"/>
<line class="g" x1="202.8" y1="24" x2="202.8" y2="294"/>
<line class="g" x1="359.7" y1="24" x2="359.7" y2="294"/>
<line class="g" x1="516.5" y1="24" x2="516.5" y2="294"/>
<line class="g" x1="673.3" y1="24" x2="673.3" y2="294"/>
<text class="e" x="40" y="35">NL</text><rect x="46" y="26" width="662" height="10" fill="#58508d" rx="1.5"/><text class="t" x="712" y="35">4221</text>
<text class="e" x="40" y="53">DE</text><rect x="46" y="44" width="650.6" height="10" fill="#58508d" rx="1.5"/><text class="t" x="700.6" y="53">4148</text>
<text class="e" x="40" y="71">US</text><rect x="46" y="62" width="411.7" height="10" fill="#58508d" rx="1.5"/><text class="t" x="461.7" y="71">2625</text>
<text class="e" x="40" y="89">FI</text><rect x="46" y="80" width="215.0" height="10" fill="#58508d" rx="1.5"/><text class="t" x="265.0" y="89">1371</text>
<text class="e" x="40" y="107">GB</text><rect x="46" y="98" width="199.2" height="10" fill="#58508d" rx="1.5"/><text class="t" x="249.2" y="107">1270</text>
<text class="e" x="40" y="125">JP</text><rect x="46" y="116" width="102.4" height="10" fill="#58508d" rx="1.5"/><text class="t" x="152.4" y="125">653</text>
<text class="e" x="40" y="143">FR</text><rect x="46" y="134" width="100.8" height="10" fill="#58508d" rx="1.5"/><text class="t" x="150.8" y="143">643</text>
<text class="e" x="40" y="161">LV</text><rect x="46" y="152" width="89.2" height="10" fill="#58508d" rx="1.5"/><text class="t" x="139.2" y="161">569</text>
<text class="e" x="40" y="179">SG</text><rect x="46" y="170" width="89.2" height="10" fill="#58508d" rx="1.5"/><text class="t" x="139.2" y="179">569</text>
<text class="e" x="40" y="197">RU</text><rect x="46" y="188" width="62.9" height="10" fill="#58508d" rx="1.5"/><text class="t" x="112.9" y="197">401</text>
<text class="e" x="40" y="215">PL</text><rect x="46" y="206" width="48.1" height="10" fill="#58508d" rx="1.5"/><text class="t" x="98.1" y="215">307</text>
<text class="e" x="40" y="233">HK</text><rect x="46" y="224" width="47.1" height="10" fill="#58508d" rx="1.5"/><text class="t" x="97.1" y="233">300</text>
<text class="e" x="40" y="251">SE</text><rect x="46" y="242" width="40.0" height="10" fill="#58508d" rx="1.5"/><text class="t" x="90.0" y="251">255</text>
<text class="e" x="40" y="269">CH</text><rect x="46" y="260" width="29.8" height="10" fill="#58508d" rx="1.5"/><text class="t" x="79.8" y="269">190</text>
<text class="e" x="40" y="287">ES</text><rect x="46" y="278" width="26.2" height="10" fill="#58508d" rx="1.5"/><text class="t" x="76.2" y="287">167</text>
</svg>