<svg xmlns="http://www.w3.org/2000/svg" width="800" height="422" viewBox="0 0 800 422"><rect width="800" height="422" fill="#ffffff"/><style>text{font-family:system-ui,-apple-system,'Segoe UI',Roboto,'PingFang SC','Microsoft YaHei','Noto Sans CJK SC',sans-serif}.g{stroke:#e8e8e8;stroke-width:1}.a{stroke:#999;stroke-width:1}.t{font-size:10px;fill:#666}.m{font-size:10px;text-anchor:middle;fill:#666}.e{font-size:10px;text-anchor:end;fill:#666}.l{font-size:11px;fill:#333}.tt{font-size:14px;font-weight:600;text-anchor:middle;fill:#444}.em{font-size:13px;text-anchor:middle;fill:#999}</style>
<text class="tt" x="400.0" y="24">按子集统计存活代理</text>
<line class="g" x1="46" y1="24" x2="46" y2="414"/>
<line class="g" x1="210.6" y1="24" x2="210.6" y2="414"/>
<line class="g" x1="375.3" y1="24" x2="375.3" y2="414"/>
<line class="g" x1="539.9" y1="24" x2="539.9" y2="414"/>
<line class="g" x1="704.5" y1="24" x2="704.5" y2="414"/>
<text class="e" x="40" y="35">all</text><rect x="46" y="26" width="662" height="7" fill="#58508d" rx="1.5"/><text class="t" x="712" y="35">20105</text>
<text class="e" x="40" y="50">all_stable</text><rect x="46" y="41" width="657.3" height="7" fill="#58508d" rx="1.5"/><text class="t" x="707.3" y="50">19961</text>
<text class="e" x="40" y="65">all_verified</text><rect x="46" y="56" width="649.4" height="7" fill="#58508d" rx="1.5"/><text class="t" x="699.4" y="65">19721</text>
<text class="e" x="40" y="80">hot</text><rect x="46" y="71" width="520.0" height="7" fill="#58508d" rx="1.5"/><text class="t" x="570.0" y="80">15791</text>
<text class="e" x="40" y="95">cn_common</text><rect x="46" y="86" width="520.0" height="7" fill="#58508d" rx="1.5"/><text class="t" x="570.0" y="95">15791</text>
<text class="e" x="40" y="110">europe</text><rect x="46" y="101" width="492.7" height="7" fill="#58508d" rx="1.5"/><text class="t" x="542.7" y="110">14963</text>
<text class="e" x="40" y="125">hk_us_jp_sg_tw_kr</text><rect x="46" y="116" width="149.3" height="7" fill="#58508d" rx="1.5"/><text class="t" x="199.3" y="125">4534</text>
<text class="e" x="40" y="140">north_america</text><rect x="46" y="131" width="91.3" height="7" fill="#58508d" rx="1.5"/><text class="t" x="141.3" y="140">2773</text>
<text class="e" x="40" y="155">asia</text><rect x="46" y="146" width="74.1" height="7" fill="#58508d" rx="1.5"/><text class="t" x="124.1" y="155">2249</text>
<text class="e" x="40" y="170">all_ltd</text><rect x="46" y="161" width="31.0" height="7" fill="#58508d" rx="1.5"/><text class="t" x="81.0" y="170">940</text>
<text class="e" x="40" y="185">all_ltd_verified</text><rect x="46" y="176" width="30.8" height="7" fill="#58508d" rx="1.5"/><text class="t" x="80.8" y="185">935</text>
<text class="e" x="40" y="200">all_ltd_stable</text><rect x="46" y="191" width="30.0" height="7" fill="#58508d" rx="1.5"/><text class="t" x="80.0" y="200">911</text>
<text class="e" x="40" y="215">europe_ltd</text><rect x="46" y="206" width="17.2" height="7" fill="#58508d" rx="1.5"/><text class="t" x="67.2" y="215">523</text>
<text class="e" x="40" y="230">asia_ltd</text><rect x="46" y="221" width="8.8" height="7" fill="#58508d" rx="1.5"/><text class="t" x="58.8" y="230">268</text>
<text class="e" x="40" y="245">hot_ltd</text><rect x="46" y="236" width="8.6" height="7" fill="#58508d" rx="1.5"/><text class="t" x="58.6" y="245">260</text>
<text class="e" x="40" y="260">cn_common_ltd</text><rect x="46" y="251" width="8.6" height="7" fill="#58508d" rx="1.5"/><text class="t" x="58.6" y="260">260</text>
<text class="e" x="40" y="275">hk_us_jp_sg_tw_kr_ltd</text><rect x="46" y="266" width="4.0" height="7" fill="#58508d" rx="1.5"/><text class="t" x="54.0" y="275">120</text>
<text class="e" x="40" y="290">middle_east</text><rect x="46" y="281" width="3.8" height="7" fill="#58508d" rx="1.5"/><text class="t" x="53.8" y="290">116</text>
<text class="e" x="40" y="305">north_america_ltd</text><rect x="46" y="296" width="1.7" height="7" fill="#58508d" rx="1.5"/><text class="t" x="51.7" y="305">52</text>
<text class="e" x="40" y="320">middle_east_ltd</text><rect x="46" y="311" width="1.6" height="7" fill="#58508d" rx="1.5"/><text class="t" x="51.6" y="320">48</text>
<text class="e" x="40" y="335">oceania</text><rect x="46" y="326" width="1.5" height="7" fill="#58508d" rx="1.5"/><text class="t" x="51.5" y="335">45</text>
<text class="e" x="40" y="350">oceania_ltd</text><rect x="46" y="341" width="1" height="7" fill="#58508d" rx="1.5"/><text class="t" x="51" y="350">22</text>
<text class="e" x="40" y="365">south_america</text><rect x="46" y="356" width="1" height="7" fill="#58508d" rx="1.5"/><text class="t" x="51" y="365">19</text>
<text class="e" x="40" y="380">south_america_ltd</text><rect x="46" y="371" width="1" height="7" fill="#58508d" rx="1.5"/><text class="t" x="51" y="380">19</text>
<text class="e" x="40" y="395">africa</text><rect x="46" y="386" width="1" height="7" fill="#58508d" rx="1.5"/><text class="t" x="51" y="395">11</text>
<text class="e" x="40" y="410">africa_ltd</text><rect x="46" y="401" width="1" height="7" fill="#58508d" rx="1.5"/><text class="t" x="51" y="410">11</text>
</svg>