<svg xmlns="http://www.w3.org/2000/svg" width="800" height="526" viewBox="0 0 800 526"><rect width="800" height="526" fill="#ffffff"/><style>text{font-family:system-ui,-apple-system,'Segoe UI',Roboto,'PingFang SC','Microsoft YaHei','Noto Sans CJK SC',sans-serif}.g{stroke:#e8e8e8;stroke-width:1}.a{stroke:#999;stroke-width:1}.t{font-size:10px;fill:#666}.m{font-size:10px;text-anchor:middle;fill:#666}.e{font-size:10px;text-anchor:end;fill:#666}.l{font-size:11px;fill:#333}.tt{font-size:14px;font-weight:600;text-anchor:middle;fill:#444}.em{font-size:13px;text-anchor:middle;fill:#999}</style>
<text class="tt" x="400.0" y="12">IP source coverage</text>
<text class="e" x="40" y="31">blackbox</text><rect x="46" y="22" width="662" height="10" fill="#2ecc71" rx="1.5"/><text class="t" x="712" y="31">15952</text>
<text class="e" x="40" y="49">ffraud</text><rect x="46" y="40" width="662" height="10" fill="#2ecc71" rx="1.5"/><text class="t" x="712" y="49">15952</text>
<text class="e" x="40" y="67">hackmyip</text><rect x="46" y="58" width="662" height="10" fill="#2ecc71" rx="1.5"/><text class="t" x="712" y="67">15952</text>
<text class="e" x="40" y="85">ip2location</text><rect x="46" y="76" width="662" height="10" fill="#2ecc71" rx="1.5"/><text class="t" x="712" y="85">15952</text>
<text class="e" x="40" y="103">ipdata</text><rect x="46" y="94" width="662" height="10" fill="#2ecc71" rx="1.5"/><text class="t" x="712" y="103">15952</text>
<text class="e" x="40" y="121">iplocation</text><rect x="46" y="112" width="662" height="10" fill="#2ecc71" rx="1.5"/><text class="t" x="712" y="121">15952</text>
<text class="e" x="40" y="139">ipquery</text><rect x="46" y="130" width="662" height="10" fill="#2ecc71" rx="1.5"/><text class="t" x="712" y="139">15952</text>
<text class="e" x="40" y="157">scamalytics</text><rect x="46" y="148" width="662" height="10" fill="#2ecc71" rx="1.5"/><text class="t" x="712" y="157">15952</text>
<text class="e" x="40" y="175">netcoffee</text><rect x="46" y="166" width="655.3" height="10" fill="#2ecc71" rx="1.5"/><text class="t" x="705.3" y="175">15791</text>
<text class="e" x="40" y="193">whatismyip</text><rect x="46" y="184" width="652.5" height="10" fill="#2ecc71" rx="1.5"/><text class="t" x="702.5" y="193">15724</text>
<text class="e" x="40" y="211">ncgy</text><rect x="46" y="202" width="596.0" height="10" fill="#2ecc71" rx="1.5"/><text class="t" x="646.0" y="211">14361</text>
<text class="e" x="40" y="229">freeipapi</text><rect x="46" y="220" width="575.2" height="10" fill="#2ecc71" rx="1.5"/><text class="t" x="625.2" y="229">13861</text>
<text class="e" x="40" y="247">proxycheck</text><rect x="46" y="238" width="522.2" height="10" fill="#2ecc71" rx="1.5"/><text class="t" x="572.2" y="247">12584</text>
<text class="e" x="40" y="265">otx</text><rect x="46" y="256" width="184.3" height="10" fill="#2ecc71" rx="1.5"/><text class="t" x="234.3" y="265">4441</text>
<text class="e" x="40" y="283">ipapi_is</text><rect x="46" y="274" width="134.5" height="10" fill="#2ecc71" rx="1.5"/><text class="t" x="184.5" y="283">3240</text>
<text class="e" x="40" y="301">firehol_level1</text><rect x="46" y="292" width="1" height="10" fill="#2ecc71" rx="1.5"/><text class="t" x="51" y="301">15</text>
<text class="e" x="40" y="319">spamhaus</text><rect x="46" y="310" width="1" height="10" fill="#2ecc71" rx="1.5"/><text class="t" x="51" y="319">15</text>
<text class="e" x="40" y="337">blocklist_de</text><rect x="46" y="328" width="1" height="10" fill="#2ecc71" rx="1.5"/><text class="t" x="51" y="337">1</text>
<text class="e" x="40" y="355">ipsum</text><rect x="46" y="346" width="1" height="10" fill="#2ecc71" rx="1.5"/><text class="t" x="51" y="355">1</text>
<text class="tt" x="400.0" y="380">Sources per proxy</text>
<line class="g" x1="46" y1="492" x2="754" y2="492"/><text class="e" x="40" y="495">0</text>
<line class="g" x1="46" y1="465.0" x2="754" y2="465.0"/><text class="e" x="40" y="468.0">2000</text>
<line class="g" x1="46" y1="438.1" x2="754" y2="438.1"/><text class="e" x="40" y="441.1">4000</text>
<line class="g" x1="46" y1="411.1" x2="754" y2="411.1"/><text class="e" x="40" y="414.1">6000</text>
<line class="a" x1="46" y1="388" x2="46" y2="492"/><line class="a" x1="46" y1="492" x2="754" y2="492"/>
<rect x="62.5" y="491.9" width="40.5" height="0.1" fill="#2ecc71" rx="1.5"/><text class="m" x="82.8" y="487.9">8</text><text class="m" x="82.8" y="504">8</text>
<rect x="136.1" y="491.6" width="40.5" height="0.4" fill="#2ecc71" rx="1.5"/><text class="m" x="156.3" y="487.6">32</text><text class="m" x="156.3" y="504">9</text>
<rect x="209.7" y="491.0" width="40.5" height="1.0" fill="#2ecc71" rx="1.5"/><text class="m" x="229.9" y="487.0">72</text><text class="m" x="229.9" y="504">10</text>
<rect x="283.2" y="483.1" width="40.5" height="8.9" fill="#2ecc71" rx="1.5"/><text class="m" x="303.4" y="479.1">659</text><text class="m" x="303.4" y="504">11</text>
<rect x="356.8" y="446.8" width="40.5" height="45.2" fill="#2ecc71" rx="1.5"/><text class="m" x="377" y="442.8">3355</text><text class="m" x="377" y="504">12</text>
<rect x="430.3" y="388" width="40.5" height="104" fill="#2ecc71" rx="1.5"/><text class="m" x="450.6" y="384">7717</text><text class="m" x="450.6" y="504">13</text>
<rect x="503.9" y="453.1" width="40.5" height="38.9" fill="#2ecc71" rx="1.5"/><text class="m" x="524.1" y="449.1">2889</text><text class="m" x="524.1" y="504">14</text>
<rect x="577.4" y="475.6" width="40.5" height="16.4" fill="#2ecc71" rx="1.5"/><text class="m" x="597.7" y="471.6">1218</text><text class="m" x="597.7" y="504">15</text>
<rect x="651.0" y="492.0" width="40.5" height="0.0" fill="#2ecc71" rx="1.5"/><text class="m" x="671.2" y="488.0">2</text><text class="m" x="671.2" y="504">16</text>
</svg>