<svg xmlns="http://www.w3.org/2000/svg" width="800" height="392" viewBox="0 0 800 392"><rect width="800" height="392" fill="#ffffff"/><style>text{font-family:system-ui,-apple-system,'Segoe UI',Roboto,sans-serif}.g{stroke:#e8e8e8;stroke-width:1}.a{stroke:#999;stroke-width:1}.t{font-size:10px;fill:#666}.m{font-size:10px;text-anchor:middle;fill:#666}.e{font-size:10px;text-anchor:end;fill:#666}.l{font-size:11px;fill:#333}.tt{font-size:14px;font-weight:600;text-anchor:middle;fill:#444}.em{font-size:13px;text-anchor:middle;fill:#999}</style>
<text class="tt" x="400.0" y="24">Intra-country speed spread (IQR/median %)</text>
<line class="g" x1="46" y1="24" x2="46" y2="384"/>
<line class="g" x1="237.3" y1="24" x2="237.3" y2="384"/>
<line class="g" x1="428.7" y1="24" x2="428.7" y2="384"/>
<line class="g" x1="620.0" y1="24" x2="620.0" y2="384"/>
<text class="e" x="40" y="35">BY n=10</text><rect x="46" y="26" width="662" height="10" fill="#4c78a8" rx="1.5"/><text class="t" x="712" y="35">173</text>
<text class="e" x="40" y="53">CN n=6</text><rect x="46" y="44" width="646.7" height="10" fill="#4c78a8" rx="1.5"/><text class="t" x="696.7" y="53">169</text>
<text class="e" x="40" y="71">SA n=13</text><rect x="46" y="62" width="405.6" height="10" fill="#4c78a8" rx="1.5"/><text class="t" x="455.6" y="71">106</text>
<text class="e" x="40" y="89">AL n=5</text><rect x="46" y="80" width="359.7" height="10" fill="#4c78a8" rx="1.5"/><text class="t" x="409.7" y="89">94</text>
<text class="e" x="40" y="107">CY n=6</text><rect x="46" y="98" width="275.5" height="10" fill="#4c78a8" rx="1.5"/><text class="t" x="325.5" y="107">72</text>
<text class="e" x="40" y="125">MX n=5</text><rect x="46" y="116" width="221.9" height="10" fill="#4c78a8" rx="1.5"/><text class="t" x="271.9" y="125">58</text>
<text class="e" x="40" y="143">MD n=8</text><rect x="46" y="134" width="199.0" height="10" fill="#4c78a8" rx="1.5"/><text class="t" x="249.0" y="143">52</text>
<text class="e" x="40" y="161">CA n=47</text><rect x="46" y="152" width="153.1" height="10" fill="#4c78a8" rx="1.5"/><text class="t" x="203.1" y="161">40</text>
<text class="e" x="40" y="179">GE n=8</text><rect x="46" y="170" width="149.2" height="10" fill="#4c78a8" rx="1.5"/><text class="t" x="199.2" y="179">39</text>
<text class="e" x="40" y="197">GR n=6</text><rect x="46" y="188" width="141.6" height="10" fill="#4c78a8" rx="1.5"/><text class="t" x="191.6" y="197">37</text>
<text class="e" x="40" y="215">US n=2060</text><rect x="46" y="206" width="126.3" height="10" fill="#4c78a8" rx="1.5"/><text class="t" x="176.3" y="215">33</text>
<text class="e" x="40" y="233">IE n=16</text><rect x="46" y="224" width="107.1" height="10" fill="#4c78a8" rx="1.5"/><text class="t" x="157.1" y="233">28</text>
<text class="e" x="40" y="251">ES n=55</text><rect x="46" y="242" width="95.7" height="10" fill="#4c78a8" rx="1.5"/><text class="t" x="145.7" y="251">25</text>
<text class="e" x="40" y="269">MY n=10</text><rect x="46" y="260" width="95.7" height="10" fill="#4c78a8" rx="1.5"/><text class="t" x="145.7" y="269">25</text>
<text class="e" x="40" y="287">UA n=8</text><rect x="46" y="278" width="91.8" height="10" fill="#4c78a8" rx="1.5"/><text class="t" x="141.8" y="287">24</text>
<text class="e" x="40" y="305">ID n=8</text><rect x="46" y="296" width="88.0" height="10" fill="#4c78a8" rx="1.5"/><text class="t" x="138.0" y="305">23</text>
<text class="e" x="40" y="323">FI n=1089</text><rect x="46" y="314" width="80.4" height="10" fill="#4c78a8" rx="1.5"/><text class="t" x="130.4" y="323">21</text>
<text class="e" x="40" y="341">SK n=10</text><rect x="46" y="332" width="80.4" height="10" fill="#4c78a8" rx="1.5"/><text class="t" x="130.4" y="341">21</text>
<text class="e" x="40" y="359">HK n=284</text><rect x="46" y="350" width="72.7" height="10" fill="#4c78a8" rx="1.5"/><text class="t" x="122.7" y="359">19</text>
<text class="e" x="40" y="377">IN n=43</text><rect x="46" y="368" width="68.9" height="10" fill="#4c78a8" rx="1.5"/><text class="t" x="118.9" y="377">18</text>
</svg>