<svg xmlns="http://www.w3.org/2000/svg" width="800" height="302" viewBox="0 0 800 302"><rect width="800" height="302" fill="#ffffff"/><style>text{font-family:system-ui,-apple-system,'Segoe UI',Roboto,'PingFang SC','Microsoft YaHei','Noto Sans CJK SC',sans-serif}.g{stroke:#e8e8e8;stroke-width:1}.a{stroke:#999;stroke-width:1}.t{font-size:10px;fill:#666}.m{font-size:10px;text-anchor:middle;fill:#666}.e{font-size:10px;text-anchor:end;fill:#666}.l{font-size:11px;fill:#333}.tt{font-size:14px;font-weight:600;text-anchor:middle;fill:#444}.em{font-size:13px;text-anchor:middle;fill:#999}</style>
<text class="tt" x="400.0" y="24">出口国 Top15（共观测 23785）</text>
<line class="g" x1="46" y1="24" x2="46" y2="294"/>
<line class="g" x1="269.3" y1="24" x2="269.3" y2="294"/>
<line class="g" x1="492.7" y1="24" x2="492.7" y2="294"/>
<text class="e" x="40" y="35">NL</text><rect x="46" y="26" width="662" height="10" fill="#58508d" rx="1.5"/><text class="t" x="712" y="35">5928</text>
<text class="e" x="40" y="53">DE</text><rect x="46" y="44" width="549.5" height="10" fill="#58508d" rx="1.5"/><text class="t" x="599.5" y="53">4921</text>
<text class="e" x="40" y="71">US</text><rect x="46" y="62" width="379.6" height="10" fill="#58508d" rx="1.5"/><text class="t" x="429.6" y="71">3399</text>
<text class="e" x="40" y="89">GB</text><rect x="46" y="80" width="194.9" height="10" fill="#58508d" rx="1.5"/><text class="t" x="244.9" y="89">1745</text>
<text class="e" x="40" y="107">FI</text><rect x="46" y="98" width="159.5" height="10" fill="#58508d" rx="1.5"/><text class="t" x="209.5" y="107">1428</text>
<text class="e" x="40" y="125">FR</text><rect x="46" y="116" width="104.9" height="10" fill="#58508d" rx="1.5"/><text class="t" x="154.9" y="125">939</text>
<text class="e" x="40" y="143">LV</text><rect x="46" y="134" width="77.8" height="10" fill="#58508d" rx="1.5"/><text class="t" x="127.8" y="143">697</text>
<text class="e" x="40" y="161">SG</text><rect x="46" y="152" width="59.5" height="10" fill="#58508d" rx="1.5"/><text class="t" x="109.5" y="161">533</text>
<text class="e" x="40" y="179">RU</text><rect x="46" y="170" width="58.6" height="10" fill="#58508d" rx="1.5"/><text class="t" x="108.6" y="179">525</text>
<text class="e" x="40" y="197">JP</text><rect x="46" y="188" width="53.5" height="10" fill="#58508d" rx="1.5"/><text class="t" x="103.5" y="197">479</text>
<text class="e" x="40" y="215">SE</text><rect x="46" y="206" width="38.9" height="10" fill="#58508d" rx="1.5"/><text class="t" x="88.9" y="215">348</text>
<text class="e" x="40" y="233">PL</text><rect x="46" y="224" width="36.4" height="10" fill="#58508d" rx="1.5"/><text class="t" x="86.4" y="233">326</text>
<text class="e" x="40" y="251">CH</text><rect x="46" y="242" width="31.7" height="10" fill="#58508d" rx="1.5"/><text class="t" x="81.7" y="251">284</text>
<text class="e" x="40" y="269">HK</text><rect x="46" y="260" width="31.3" height="10" fill="#58508d" rx="1.5"/><text class="t" x="81.3" y="269">280</text>
<text class="e" x="40" y="287">ES</text><rect x="46" y="278" width="23.9" height="10" fill="#58508d" rx="1.5"/><text class="t" x="73.9" y="287">214</text>
</svg>