<svg xmlns="http://www.w3.org/2000/svg" width="800" height="302" viewBox="0 0 800 302"><rect width="800" height="302" fill="#ffffff"/><style>text{font-family:system-ui,-apple-system,'Segoe UI',Roboto,sans-serif}.g{stroke:#e8e8e8;stroke-width:1}.a{stroke:#999;stroke-width:1}.t{font-size:10px;fill:#666}.m{font-size:10px;text-anchor:middle;fill:#666}.e{font-size:10px;text-anchor:end;fill:#666}.l{font-size:11px;fill:#333}.tt{font-size:14px;font-weight:600;text-anchor:middle;fill:#444}.em{font-size:13px;text-anchor:middle;fill:#999}</style>
<text class="tt" x="400.0" y="24">Exit country top 15 (of 25841 observed)</text>
<line class="g" x1="46" y1="24" x2="46" y2="294"/>
<line class="g" x1="265.7" y1="24" x2="265.7" y2="294"/>
<line class="g" x1="485.4" y1="24" x2="485.4" y2="294"/>
<line class="g" x1="705.1" y1="24" x2="705.1" y2="294"/>
<text class="e" x="40" y="35">NL</text><rect x="46" y="26" width="662" height="10" fill="#58508d" rx="1.5"/><text class="t" x="712" y="35">6026</text>
<text class="e" x="40" y="53">DE</text><rect x="46" y="44" width="520.7" height="10" fill="#58508d" rx="1.5"/><text class="t" x="570.7" y="53">4740</text>
<text class="e" x="40" y="71">US</text><rect x="46" y="62" width="437.9" height="10" fill="#58508d" rx="1.5"/><text class="t" x="487.9" y="71">3986</text>
<text class="e" x="40" y="89">GB</text><rect x="46" y="80" width="253.7" height="10" fill="#58508d" rx="1.5"/><text class="t" x="303.7" y="89">2309</text>
<text class="e" x="40" y="107">FI</text><rect x="46" y="98" width="159.1" height="10" fill="#58508d" rx="1.5"/><text class="t" x="209.1" y="107">1448</text>
<text class="e" x="40" y="125">FR</text><rect x="46" y="116" width="91.4" height="10" fill="#58508d" rx="1.5"/><text class="t" x="141.4" y="125">832</text>
<text class="e" x="40" y="143">LV</text><rect x="46" y="134" width="89.3" height="10" fill="#58508d" rx="1.5"/><text class="t" x="139.3" y="143">813</text>
<text class="e" x="40" y="161">SG</text><rect x="46" y="152" width="74.7" height="10" fill="#58508d" rx="1.5"/><text class="t" x="124.7" y="161">680</text>
<text class="e" x="40" y="179">JP</text><rect x="46" y="170" width="74.2" height="10" fill="#58508d" rx="1.5"/><text class="t" x="124.2" y="179">675</text>
<text class="e" x="40" y="197">RU</text><rect x="46" y="188" width="61.7" height="10" fill="#58508d" rx="1.5"/><text class="t" x="111.7" y="197">562</text>
<text class="e" x="40" y="215">SE</text><rect x="46" y="206" width="56.2" height="10" fill="#58508d" rx="1.5"/><text class="t" x="106.2" y="215">512</text>
<text class="e" x="40" y="233">PL</text><rect x="46" y="224" width="40.4" height="10" fill="#58508d" rx="1.5"/><text class="t" x="90.4" y="233">368</text>
<text class="e" x="40" y="251">HK</text><rect x="46" y="242" width="37.2" height="10" fill="#58508d" rx="1.5"/><text class="t" x="87.2" y="251">339</text>
<text class="e" x="40" y="269">CH</text><rect x="46" y="260" width="28.8" height="10" fill="#58508d" rx="1.5"/><text class="t" x="78.8" y="269">262</text>
<text class="e" x="40" y="287">AT</text><rect x="46" y="278" width="28.2" height="10" fill="#58508d" rx="1.5"/><text class="t" x="78.2" y="287">257</text>
</svg>