<svg xmlns="http://www.w3.org/2000/svg" width="800" height="300" viewBox="0 0 800 300"><rect width="800" height="300" fill="#ffffff"/><style>text{font-family:system-ui,-apple-system,'Segoe UI',Roboto,sans-serif}.g{stroke:#e8e8e8;stroke-width:1}.a{stroke:#999;stroke-width:1}.t{font-size:10px;fill:#666}.m{font-size:10px;text-anchor:middle;fill:#666}.e{font-size:10px;text-anchor:end;fill:#666}.l{font-size:11px;fill:#333}.tt{font-size:14px;font-weight:600;text-anchor:middle;fill:#444}.em{font-size:13px;text-anchor:middle;fill:#999}</style>
<text class="tt" x="400.0" y="24">Added / removed per update</text>
<line class="g" x1="46" y1="266" x2="754" y2="266"/><text class="e" x="40" y="269">0</text>
<line class="g" x1="46" y1="211.5" x2="754" y2="211.5"/><text class="e" x="40" y="214.5">200</text>
<line class="g" x1="46" y1="157.0" x2="754" y2="157.0"/><text class="e" x="40" y="160.0">400</text>
<line class="g" x1="46" y1="102.5" x2="754" y2="102.5"/><text class="e" x="40" y="105.5">600</text>
<line class="g" x1="46" y1="48.0" x2="754" y2="48.0"/><text class="e" x="40" y="51.0">800</text>
<line class="a" x1="46" y1="24" x2="46" y2="266"/><line class="a" x1="46" y1="266" x2="754" y2="266"/>
<rect x="47.5" y="263.8" width="6.0" height="2.2" fill="#72b7b2" rx="1"/>
<rect x="53.5" y="243.1" width="6.0" height="22.9" fill="#e45756" rx="1"/>
<rect x="62.6" y="258.9" width="6.0" height="7.1" fill="#72b7b2" rx="1"/>
<rect x="68.6" y="256.7" width="6.0" height="9.3" fill="#e45756" rx="1"/>
<rect x="77.6" y="266" width="6.0" height="0" fill="#72b7b2" rx="1"/>
<rect x="83.7" y="266" width="6.0" height="0" fill="#e45756" rx="1"/>
<rect x="92.7" y="97.0" width="6.0" height="169.0" fill="#72b7b2" rx="1"/>
<rect x="98.7" y="24" width="6.0" height="242" fill="#e45756" rx="1"/>
<rect x="107.8" y="266" width="6.0" height="0" fill="#72b7b2" rx="1"/>
<rect x="113.8" y="266" width="6.0" height="0" fill="#e45756" rx="1"/>
<rect x="122.8" y="266" width="6.0" height="0" fill="#72b7b2" rx="1"/>
<rect x="128.9" y="266" width="6.0" height="0" fill="#e45756" rx="1"/>
<rect x="137.9" y="266" width="6.0" height="0" fill="#72b7b2" rx="1"/>
<rect x="143.9" y="266" width="6.0" height="0" fill="#e45756" rx="1"/>
<rect x="153.0" y="266" width="6.0" height="0" fill="#72b7b2" rx="1"/>
<rect x="159.0" y="266" width="6.0" height="0" fill="#e45756" rx="1"/>
<rect x="168.0" y="258.4" width="6.0" height="7.6" fill="#72b7b2" rx="1"/>
<rect x="174.0" y="258.1" width="6.0" height="7.9" fill="#e45756" rx="1"/>
<rect x="183.1" y="266" width="6.0" height="0" fill="#72b7b2" rx="1"/>
<rect x="189.1" y="266" width="6.0" height="0" fill="#e45756" rx="1"/>
<rect x="198.1" y="266" width="6.0" height="0" fill="#72b7b2" rx="1"/>
<rect x="204.2" y="266" width="6.0" height="0" fill="#e45756" rx="1"/>
<rect x="213.2" y="266" width="6.0" height="0" fill="#72b7b2" rx="1"/>
<rect x="219.2" y="266" width="6.0" height="0" fill="#e45756" rx="1"/>
<rect x="228.3" y="266" width="6.0" height="0" fill="#72b7b2" rx="1"/>
<rect x="234.3" y="266" width="6.0" height="0" fill="#e45756" rx="1"/>
<rect x="243.3" y="266" width="6.0" height="0" fill="#72b7b2" rx="1"/>
<rect x="249.4" y="266" width="6.0" height="0" fill="#e45756" rx="1"/>
<rect x="258.4" y="266" width="6.0" height="0" fill="#72b7b2" rx="1"/>
<rect x="264.4" y="266" width="6.0" height="0" fill="#e45756" rx="1"/>
<rect x="273.5" y="266" width="6.0" height="0" fill="#72b7b2" rx="1"/>
<rect x="279.5" y="266" width="6.0" height="0" fill="#e45756" rx="1"/>
<rect x="288.5" y="266" width="6.0" height="0" fill="#72b7b2" rx="1"/>
<rect x="294.6" y="266" width="6.0" height="0" fill="#e45756" rx="1"/>
<rect x="303.6" y="266" width="6.0" height="0" fill="#72b7b2" rx="1"/>
<rect x="309.6" y="266" width="6.0" height="0" fill="#e45756" rx="1"/>
<rect x="318.7" y="266" width="6.0" height="0" fill="#72b7b2" rx="1"/>
<rect x="324.7" y="266" width="6.0" height="0" fill="#e45756" rx="1"/>
<rect x="333.7" y="257.6" width="6.0" height="8.4" fill="#72b7b2" rx="1"/>
<rect x="339.7" y="258.9" width="6.0" height="7.1" fill="#e45756" rx="1"/>
<rect x="348.8" y="266" width="6.0" height="0" fill="#72b7b2" rx="1"/>
<rect x="354.8" y="266" width="6.0" height="0" fill="#e45756" rx="1"/>
<rect x="363.8" y="258.6" width="6.0" height="7.4" fill="#72b7b2" rx="1"/>
<rect x="369.9" y="257.6" width="6.0" height="8.4" fill="#e45756" rx="1"/>
<rect x="378.9" y="261.4" width="6.0" height="4.6" fill="#72b7b2" rx="1"/>
<rect x="384.9" y="258.6" width="6.0" height="7.4" fill="#e45756" rx="1"/>
<rect x="394.0" y="258.4" width="6.0" height="7.6" fill="#72b7b2" rx="1"/>
<rect x="400" y="261.4" width="6.0" height="4.6" fill="#e45756" rx="1"/>
<rect x="409.0" y="85.9" width="6.0" height="180.1" fill="#72b7b2" rx="1"/>
<rect x="415.1" y="34.4" width="6.0" height="231.6" fill="#e45756" rx="1"/>
<rect x="424.1" y="259.5" width="6.0" height="6.5" fill="#72b7b2" rx="1"/>
<rect x="430.1" y="264.9" width="6.0" height="1.1" fill="#e45756" rx="1"/>
<rect x="439.2" y="258.9" width="6.0" height="7.1" fill="#72b7b2" rx="1"/>
<rect x="445.2" y="257.3" width="6.0" height="8.7" fill="#e45756" rx="1"/>
<rect x="454.2" y="257.6" width="6.0" height="8.4" fill="#72b7b2" rx="1"/>
<rect x="460.3" y="259.2" width="6.0" height="6.8" fill="#e45756" rx="1"/>
<rect x="469.3" y="266" width="6.0" height="0" fill="#72b7b2" rx="1"/>
<rect x="475.3" y="266" width="6.0" height="0" fill="#e45756" rx="1"/>
<rect x="484.4" y="266" width="6.0" height="0" fill="#72b7b2" rx="1"/>
<rect x="490.4" y="266" width="6.0" height="0" fill="#e45756" rx="1"/>
<rect x="499.4" y="229.5" width="6.0" height="36.5" fill="#72b7b2" rx="1"/>
<rect x="505.4" y="61.9" width="6.0" height="204.1" fill="#e45756" rx="1"/>
<rect x="514.5" y="229.5" width="6.0" height="36.5" fill="#72b7b2" rx="1"/>
<rect x="520.5" y="61.9" width="6.0" height="204.1" fill="#e45756" rx="1"/>
<rect x="529.5" y="227.3" width="6.0" height="38.7" fill="#72b7b2" rx="1"/>
<rect x="535.6" y="61.6" width="6.0" height="204.4" fill="#e45756" rx="1"/>
<rect x="544.6" y="227.3" width="6.0" height="38.7" fill="#72b7b2" rx="1"/>
<rect x="550.6" y="61.6" width="6.0" height="204.4" fill="#e45756" rx="1"/>
<rect x="559.7" y="229.8" width="6.0" height="36.2" fill="#72b7b2" rx="1"/>
<rect x="565.7" y="61.3" width="6.0" height="204.7" fill="#e45756" rx="1"/>
<rect x="574.7" y="228.7" width="6.0" height="37.3" fill="#72b7b2" rx="1"/>
<rect x="580.8" y="61.3" width="6.0" height="204.7" fill="#e45756" rx="1"/>
<rect x="589.8" y="230.0" width="6.0" height="36.0" fill="#72b7b2" rx="1"/>
<rect x="595.8" y="61.1" width="6.0" height="204.9" fill="#e45756" rx="1"/>
<rect x="604.9" y="230.0" width="6.0" height="36.0" fill="#72b7b2" rx="1"/>
<rect x="610.9" y="61.1" width="6.0" height="204.9" fill="#e45756" rx="1"/>
<rect x="619.9" y="227.6" width="6.0" height="38.4" fill="#72b7b2" rx="1"/>
<rect x="626.0" y="61.3" width="6.0" height="204.7" fill="#e45756" rx="1"/>
<rect x="635.0" y="227.6" width="6.0" height="38.4" fill="#72b7b2" rx="1"/>
<rect x="641.0" y="61.3" width="6.0" height="204.7" fill="#e45756" rx="1"/>
<rect x="650.1" y="228.1" width="6.0" height="37.9" fill="#72b7b2" rx="1"/>
<rect x="656.1" y="61.9" width="6.0" height="204.1" fill="#e45756" rx="1"/>
<rect x="665.1" y="228.1" width="6.0" height="37.9" fill="#72b7b2" rx="1"/>
<rect x="671.1" y="61.9" width="6.0" height="204.1" fill="#e45756" rx="1"/>
<rect x="680.2" y="228.1" width="6.0" height="37.9" fill="#72b7b2" rx="1"/>
<rect x="686.2" y="61.6" width="6.0" height="204.4" fill="#e45756" rx="1"/>
<rect x="695.3" y="231.1" width="6.0" height="34.9" fill="#72b7b2" rx="1"/>
<rect x="701.3" y="61.3" width="6.0" height="204.7" fill="#e45756" rx="1"/>
<rect x="710.3" y="232.8" width="6.0" height="33.2" fill="#72b7b2" rx="1"/>
<rect x="716.3" y="62.2" width="6.0" height="203.8" fill="#e45756" rx="1"/>
<rect x="725.4" y="231.1" width="6.0" height="34.9" fill="#72b7b2" rx="1"/>
<rect x="731.4" y="61.9" width="6.0" height="204.1" fill="#e45756" rx="1"/>
<rect x="740.4" y="228.9" width="6.0" height="37.1" fill="#72b7b2" rx="1"/>
<rect x="746.5" y="61.9" width="6.0" height="204.1" fill="#e45756" rx="1"/>
<text class="t" x="46" y="278">2026-08-19 00:43</text><text class="e" x="738.9" y="278">2026-08-24 00:59</text>
<line x1="14" y1="20" x2="32" y2="20" stroke="#72b7b2" stroke-width="2"/><text class="l" x="36" y="23">added 136</text><line x1="109.6" y1="20" x2="127.6" y2="20" stroke="#e45756" stroke-width="2"/><text class="l" x="131.6" y="23">removed 749</text>
</svg>