<svg xmlns="http://www.w3.org/2000/svg" width="800" height="300" viewBox="0 0 800 300"><rect width="800" height="300" fill="#ffffff"/><style>text{font-family:system-ui,-apple-system,'Segoe UI',Roboto,'PingFang SC','Microsoft YaHei','Noto Sans CJK SC',sans-serif}.g{stroke:#e8e8e8;stroke-width:1}.a{stroke:#999;stroke-width:1}.t{font-size:10px;fill:#666}.m{font-size:10px;text-anchor:middle;fill:#666}.e{font-size:10px;text-anchor:end;fill:#666}.l{font-size:11px;fill:#333}.tt{font-size:14px;font-weight:600;text-anchor:middle;fill:#444}.em{font-size:13px;text-anchor:middle;fill:#999}</style>
<text class="tt" x="400.0" y="24">分运营商可达数（近 7 天）</text>
<line class="g" x1="46" y1="266" x2="754" y2="266"/><text class="e" x="40" y="269">0</text>
<line class="g" x1="46" y1="205.5" x2="754" y2="205.5"/><text class="e" x="40" y="208.5">5000</text>
<line class="g" x1="46" y1="145" x2="754" y2="145"/><text class="e" x="40" y="148">10000</text>
<line class="g" x1="46" y1="84.5" x2="754" y2="84.5"/><text class="e" x="40" y="87.5">15000</text>
<line class="g" x1="46" y1="24" x2="754" y2="24"/><text class="e" x="40" y="27">20000</text>
<line class="a" x1="46" y1="24" x2="46" y2="266"/><line class="a" x1="46" y1="266" x2="754" y2="266"/>
<polyline fill="none" stroke="#4c78a8" stroke-width="2" stroke-linejoin="round" points="46,266 49.9,266 49.9,266 51.1,266 56.2,266 56.2,266 59.5,266 64.6,266 66.3,266 66.7,266 76.5,266 78.1,266 86.5,266 88.6,266 89.7,266 92.1,266 93.4,266 93.4,266 94.0,266 94.7,266 96.7,266 98.5,266 100.0,266 105.2,266 107.8,266 114.4,266 118.2,266 118.2,266 123.2,266 124.7,266 134.7,266 138.0,266 138.1,266 143.4,266 143.5,266 145.4,266 148.4,266 151.7,266 151.7,266 156.1,266 156.2,266 157.7,266 161.3,266 163.9,266 163.9,266 175.3,266 175.4,266 177.2,266 182.9,266 190.4,266 199.5,266 199.5,266 201.2,266 204.5,266 204.6,266 214.0,266 218.0,266 218.1,266 219.5,266 234.2,266 241.9,266 242.0,266 243.9,266 244.0,266 248.5,266 255.6,266 258.2,266 258.2,266 261.3,266 262.9,266 272.4,266 272.5,266 274.1,266 275.7,260.0 275.7,260.0 281.9,260.0 296.5,260.0 296.5,260.0 298.5,260.0 306.5,260.0 306.5,260.0 306.6,260.0 308.4,260.0 309.4,260.0 310.4,260.0 318.9,260.0 321.6,260.0 321.7,260.0 323.5,260.0 328.7,260.0 334.5,260.0 336.5,260.0 336.6,260.0 338.5,260.0 340.8,260.0 347.4,260.0 349.6,260.0 349.6,260.0 351.2,260.0 356.1,260.0 358.2,260.0 358.2,260.0 358.6,260.0 360.2,260.0 362.6,260.0 364.2,260.0 380.3,260.0 380.4,260.0 382.4,260.0 385.6,260.0 388.6,260.0 389.4,260.0 405.3,260.0 405.3,260.0 407.0,260.0 412.8,260.0 415.0,260.0 427.7,260.0 427.7,260.0 429.4,260.0 432.7,260.0 440.6,260.0 441.2,260.0 443.4,260.0 443.7,260.0 452.5,260.0 452.5,260.0 454.1,260.0 454.6,260.0 459.2,260.0 465.5,260.0 466.2,260.0 469.1,260.0 469.2,260.0 471.2,260.0 477.6,260.0 477.7,260.0 485.4,69.2 485.4,69.2 485.5,69.2 488.1,69.2 497.1,69.2 497.1,69.2 499.2,69.2 505.2,69.2 510.3,69.2 510.3,69.2 510.6,69.2 510.7,69.2 512.6,69.2 521.7,69.2 526.7,69.2 526.7,69.2 537.4,69.2 537.5,69.2 537.7,69.2 537.8,69.2 539.8,69.2 548.9,69.2 554.5,69.2 554.5,69.2 561.3,69.2 561.3,69.2 562.9,69.2 565.4,69.2 567.5,69.2 574.5,69.2 574.6,69.2 576.2,69.2 587.5,69.2 587.5,69.2 589.9,69.2 601.8,69.2 601.9,69.2 603.5,69.2 609.2,69.2 618.4,69.2 622.7,69.2 622.7,69.2 630.0,69.2 630.1,69.2 640.7,69.2 645.4,69.2 647.4,69.2 647.4,69.2 647.5,69.2 657.8,69.2 659.4,69.2 659.9,69.2 661.1,69.2 661.1,69.2 671.1,69.2 671.2,69.2 671.2,69.2 673.1,69.2 673.3,69.2 687.1,69.2 687.2,69.2 688.7,69.2 694.6,69.2 694.6,69.2 703.3,69.2 709.6,69.2 711.3,69.2 718.3,69.2 728.4,69.2 733.8,69.2 735.4,69.2 741.2,69.2 741.2,69.2 748.7,69.2 754,69.2"/>
<text class="t" x="750" y="65.2" text-anchor="end" fill="#4c78a8">16268</text>
<polyline fill="none" stroke="#54a24b" stroke-width="2" stroke-linejoin="round" points="46,266 49.9,266 49.9,266 51.1,266 56.2,266 56.2,266 59.5,266 64.6,266 66.3,266 66.7,266 76.5,266 78.1,266 86.5,266 88.6,266 89.7,266 92.1,266 93.4,266 93.4,266 94.0,266 94.7,266 96.7,266 98.5,266 100.0,266 105.2,266 107.8,266 114.4,266 118.2,266 118.2,266 123.2,266 124.7,266 134.7,266 138.0,266 138.1,266 143.4,266 143.5,266 145.4,266 148.4,266 151.7,266 151.7,266 156.1,266 156.2,266 157.7,266 161.3,266 163.9,266 163.9,266 175.3,266 175.4,266 177.2,266 182.9,266 190.4,266 199.5,266 199.5,266 201.2,266 204.5,266 204.6,266 214.0,266 218.0,266 218.1,266 219.5,266 234.2,266 241.9,266 242.0,266 243.9,266 244.0,266 248.5,266 255.6,266 258.2,266 258.2,266 261.3,266 262.9,266 272.4,266 272.5,266 274.1,266 275.7,260.0 275.7,260.0 281.9,260.0 296.5,260.0 296.5,260.0 298.5,260.0 306.5,260.0 306.5,260.0 306.6,260.0 308.4,260.0 309.4,260.0 310.4,260.0 318.9,260.0 321.6,260.0 321.7,260.0 323.5,260.0 328.7,260.0 334.5,260.0 336.5,260.0 336.6,260.0 338.5,260.0 340.8,260.0 347.4,260.0 349.6,260.0 349.6,260.0 351.2,260.0 356.1,260.0 358.2,260.0 358.2,260.0 358.6,260.0 360.2,260.0 362.6,260.0 364.2,260.0 380.3,260.0 380.4,260.0 382.4,260.0 385.6,260.0 388.6,260.0 389.4,260.0 405.3,260.0 405.3,260.0 407.0,260.0 412.8,260.0 415.0,260.0 427.7,260.0 427.7,260.0 429.4,260.0 432.7,260.0 440.6,260.0 441.2,260.0 443.4,260.0 443.7,260.0 452.5,260.0 452.5,260.0 454.1,260.0 454.6,260.0 459.2,260.0 465.5,260.0 466.2,260.0 469.1,260.0 469.2,260.0 471.2,260.0 477.6,260.0 477.7,260.0 485.4,265.3 485.4,265.3 485.5,265.3 488.1,265.3 497.1,265.3 497.1,265.3 499.2,265.3 505.2,265.3 510.3,265.3 510.3,265.3 510.6,265.3 510.7,265.3 512.6,265.3 521.7,265.3 526.7,265.3 526.7,265.3 537.4,265.3 537.5,265.3 537.7,265.3 537.8,265.3 539.8,265.3 548.9,265.3 554.5,265.3 554.5,265.3 561.3,265.3 561.3,265.3 562.9,265.3 565.4,265.3 567.5,265.3 574.5,265.3 574.6,265.3 576.2,265.3 587.5,265.3 587.5,265.3 589.9,265.3 601.8,265.3 601.9,265.3 603.5,265.3 609.2,265.3 618.4,265.3 622.7,265.3 622.7,265.3 630.0,265.3 630.1,265.3 640.7,265.3 645.4,265.3 647.4,265.3 647.4,265.3 647.5,265.3 657.8,265.3 659.4,265.3 659.9,265.3 661.1,265.3 661.1,265.3 671.1,265.3 671.2,265.3 671.2,265.3 673.1,265.3 673.3,265.3 687.1,265.3 687.2,265.3 688.7,265.3 694.6,265.3 694.6,265.3 703.3,265.3 709.6,265.3 711.3,265.3 718.3,265.3 728.4,265.3 733.8,265.3 735.4,265.3 741.2,265.3 741.2,265.3 748.7,265.3 754,265.3"/>
<text class="t" x="750" y="261.3" text-anchor="end" fill="#54a24b">56</text>
<polyline fill="none" stroke="#f58518" stroke-width="2" stroke-linejoin="round" points="46,266 49.9,266 49.9,266 51.1,266 56.2,266 56.2,266 59.5,266 64.6,266 66.3,266 66.7,266 76.5,266 78.1,266 86.5,266 88.6,266 89.7,266 92.1,266 93.4,266 93.4,266 94.0,266 94.7,266 96.7,266 98.5,266 100.0,266 105.2,266 107.8,266 114.4,266 118.2,266 118.2,266 123.2,266 124.7,266 134.7,266 138.0,266 138.1,266 143.4,266 143.5,266 145.4,266 148.4,266 151.7,266 151.7,266 156.1,266 156.2,266 157.7,266 161.3,266 163.9,266 163.9,266 175.3,266 175.4,266 177.2,266 182.9,266 190.4,266 199.5,266 199.5,266 201.2,266 204.5,266 204.6,266 214.0,266 218.0,266 218.1,266 219.5,266 234.2,266 241.9,266 242.0,266 243.9,266 244.0,266 248.5,266 255.6,266 258.2,266 258.2,266 261.3,266 262.9,266 272.4,266 272.5,266 274.1,266 275.7,260.0 275.7,260.0 281.9,260.0 296.5,260.0 296.5,260.0 298.5,260.0 306.5,260.0 306.5,260.0 306.6,260.0 308.4,260.0 309.4,260.0 310.4,260.0 318.9,260.0 321.6,260.0 321.7,260.0 323.5,260.0 328.7,260.0 334.5,260.0 336.5,260.0 336.6,260.0 338.5,260.0 340.8,260.0 347.4,260.0 349.6,260.0 349.6,260.0 351.2,260.0 356.1,260.0 358.2,260.0 358.2,260.0 358.6,260.0 360.2,260.0 362.6,260.0 364.2,260.0 380.3,260.0 380.4,260.0 382.4,260.0 385.6,260.0 388.6,260.0 389.4,260.0 405.3,260.0 405.3,260.0 407.0,260.0 412.8,260.0 415.0,260.0 427.7,260.0 427.7,260.0 429.4,260.0 432.7,260.0 440.6,260.0 441.2,260.0 443.4,260.0 443.7,260.0 452.5,260.0 452.5,260.0 454.1,260.0 454.6,260.0 459.2,260.0 465.5,260.0 466.2,260.0 469.1,260.0 469.2,260.0 471.2,260.0 477.6,260.0 477.7,260.0 485.4,265.3 485.4,265.3 485.5,265.3 488.1,265.3 497.1,265.3 497.1,265.3 499.2,265.3 505.2,265.3 510.3,265.3 510.3,265.3 510.6,265.3 510.7,265.3 512.6,265.3 521.7,265.3 526.7,265.3 526.7,265.3 537.4,265.3 537.5,265.3 537.7,265.3 537.8,265.3 539.8,265.3 548.9,265.3 554.5,265.3 554.5,265.3 561.3,265.3 561.3,265.3 562.9,265.3 565.4,265.3 567.5,265.3 574.5,265.3 574.6,265.3 576.2,265.3 587.5,265.3 587.5,265.3 589.9,265.3 601.8,265.3 601.9,265.3 603.5,265.3 609.2,265.3 618.4,265.3 622.7,265.3 622.7,265.3 630.0,265.3 630.1,265.3 640.7,265.3 645.4,265.3 647.4,265.3 647.4,265.3 647.5,265.3 657.8,265.3 659.4,265.3 659.9,265.3 661.1,265.3 661.1,265.3 671.1,265.3 671.2,265.3 671.2,265.3 673.1,265.3 673.3,265.3 687.1,265.3 687.2,265.3 688.7,265.3 694.6,265.3 694.6,265.3 703.3,265.3 709.6,265.3 711.3,265.3 718.3,265.3 728.4,265.3 733.8,265.3 735.4,265.3 741.2,265.3 741.2,265.3 748.7,265.3 754,265.3"/>
<text class="t" x="750" y="261.3" text-anchor="end" fill="#f58518">56</text>
<text class="t" x="46" y="288">2026-09-16 21:42</text>
<text class="m" x="219.5" y="288">2026-09-18 14:25</text>
<text class="m" x="405.3" y="288">2026-09-20 10:01</text>
<text class="m" x="576.2" y="288">2026-09-22 02:09</text>
<text class="e" x="754" y="288">2026-09-23 19:52</text>
<line x1="14" y1="20" x2="32" y2="20" stroke="#4c78a8" stroke-width="2"/><text class="l" x="36" y="23">中国电信 16268</text><line x1="116.0" y1="20" x2="134.0" y2="20" stroke="#54a24b" stroke-width="2"/><text class="l" x="138.0" y="23">中国联通 56</text><line x1="198.8" y1="20" x2="216.8" y2="20" stroke="#f58518" stroke-width="2"/><text class="l" x="220.8" y="23">中国移动 56</text>
</svg>