<svg xmlns="http://www.w3.org/2000/svg" width="800" height="300" viewBox="0 0 800 300"><rect width="800" height="300" fill="#ffffff"/>
<text x="400.0" y="16" font-size="10" text-anchor="middle" fill="#444">Alive rate (%) &amp; dead</text>
<line x1="46" y1="266.0" x2="754" y2="266.0" stroke="#e8e8e8"/><text x="40" y="269.0" font-size="9" text-anchor="end" fill="#666">96%</text>
<line x1="46" y1="203.5" x2="754" y2="203.5" stroke="#e8e8e8"/><text x="40" y="206.5" font-size="9" text-anchor="end" fill="#666">97%</text>
<line x1="46" y1="141.0" x2="754" y2="141.0" stroke="#e8e8e8"/><text x="40" y="144.0" font-size="9" text-anchor="end" fill="#666">98%</text>
<line x1="46" y1="78.5" x2="754" y2="78.5" stroke="#e8e8e8"/><text x="40" y="81.5" font-size="9" text-anchor="end" fill="#666">99%</text>
<line x1="46" y1="16.0" x2="754" y2="16.0" stroke="#e8e8e8"/><text x="40" y="19.0" font-size="9" text-anchor="end" fill="#666">100%</text>
<text x="792" y="269.0" font-size="9" text-anchor="end" fill="#666">0</text>
<text x="792" y="206.5" font-size="9" text-anchor="end" fill="#666">200</text>
<text x="792" y="144.0" font-size="9" text-anchor="end" fill="#666">400</text>
<text x="792" y="81.5" font-size="9" text-anchor="end" fill="#666">600</text>
<text x="792" y="19.0" font-size="9" text-anchor="end" fill="#666">800</text>
<line x1="754" y1="16" x2="754" y2="266" stroke="#999"/>
<line x1="46" y1="16" x2="46" y2="266" stroke="#999"/><line x1="46" y1="266" x2="754" y2="266" stroke="#999"/>
<polyline fill="none" stroke="#f58518" stroke-width="2" stroke-linejoin="round" points="46.0,53.5 51.3,59.8 58.2,59.8 68.2,72.3 75.3,78.5 77.2,72.3 95.3,91.0 114.9,91.0 133.8,97.2 154.9,103.5 167.9,91.0 187.3,78.5 205.3,78.5 223.8,84.7 255.7,97.2 297.0,53.5 301.6,53.5 307.0,59.8 315.2,59.8 316.9,53.5 337.0,72.3 341.4,72.3 364.7,91.0 389.7,159.7 417.7,122.3 441.8,134.8 456.8,153.5 478.5,147.2 506.5,222.2 529.5,178.5 547.9,159.7 567.5,153.5 583.1,166.0 608.5,172.2 627.7,159.7 647.6,172.2 665.2,166.0 684.2,159.7 716.4,172.2 744.2,47.2 748.1,41.0 754.0,53.5"/>
<circle cx="46.0" cy="53.5" r="4" fill="transparent"><title>2026-08-11 14:15 · alive rate: 99.4</title></circle>
<circle cx="51.3" cy="59.8" r="4" fill="transparent"><title>2026-08-11 14:32 · alive rate: 99.3</title></circle>
<circle cx="58.2" cy="59.8" r="4" fill="transparent"><title>2026-08-11 14:53 · alive rate: 99.3</title></circle>
<circle cx="68.2" cy="72.3" r="4" fill="transparent"><title>2026-08-11 15:24 · alive rate: 99.1</title></circle>
<circle cx="75.3" cy="78.5" r="4" fill="transparent"><title>2026-08-11 15:47 · alive rate: 99</title></circle>
<circle cx="77.2" cy="72.3" r="4" fill="transparent"><title>2026-08-11 15:53 · alive rate: 99.1</title></circle>
<circle cx="95.3" cy="91.0" r="4" fill="transparent"><title>2026-08-11 16:49 · alive rate: 98.8</title></circle>
<circle cx="114.9" cy="91.0" r="4" fill="transparent"><title>2026-08-11 17:51 · alive rate: 98.8</title></circle>
<circle cx="133.8" cy="97.2" r="4" fill="transparent"><title>2026-08-11 18:50 · alive rate: 98.7</title></circle>
<circle cx="154.9" cy="103.5" r="4" fill="transparent"><title>2026-08-11 19:56 · alive rate: 98.6</title></circle>
<circle cx="167.9" cy="91.0" r="4" fill="transparent"><title>2026-08-11 20:36 · alive rate: 98.8</title></circle>
<circle cx="187.3" cy="78.5" r="4" fill="transparent"><title>2026-08-11 21:37 · alive rate: 99</title></circle>
<circle cx="205.3" cy="78.5" r="4" fill="transparent"><title>2026-08-11 22:33 · alive rate: 99</title></circle>
<circle cx="223.8" cy="84.7" r="4" fill="transparent"><title>2026-08-11 23:31 · alive rate: 98.9</title></circle>
<circle cx="255.7" cy="97.2" r="4" fill="transparent"><title>2026-08-12 01:11 · alive rate: 98.7</title></circle>
<circle cx="297.0" cy="53.5" r="4" fill="transparent"><title>2026-08-12 03:20 · alive rate: 99.4</title></circle>
<circle cx="301.6" cy="53.5" r="4" fill="transparent"><title>2026-08-12 03:35 · alive rate: 99.4</title></circle>
<circle cx="307.0" cy="59.8" r="4" fill="transparent"><title>2026-08-12 03:52 · alive rate: 99.3</title></circle>
<circle cx="315.2" cy="59.8" r="4" fill="transparent"><title>2026-08-12 04:17 · alive rate: 99.3</title></circle>
<circle cx="316.9" cy="53.5" r="4" fill="transparent"><title>2026-08-12 04:23 · alive rate: 99.4</title></circle>
<circle cx="337.0" cy="72.3" r="4" fill="transparent"><title>2026-08-12 05:25 · alive rate: 99.1</title></circle>
<circle cx="341.4" cy="72.3" r="4" fill="transparent"><title>2026-08-12 05:39 · alive rate: 99.1</title></circle>
<circle cx="364.7" cy="91.0" r="4" fill="transparent"><title>2026-08-12 06:52 · alive rate: 98.8</title></circle>
<circle cx="389.7" cy="159.7" r="4" fill="transparent"><title>2026-08-12 08:10 · alive rate: 97.7</title></circle>
<circle cx="417.7" cy="122.3" r="4" fill="transparent"><title>2026-08-12 09:38 · alive rate: 98.3</title></circle>
<circle cx="441.8" cy="134.8" r="4" fill="transparent"><title>2026-08-12 10:54 · alive rate: 98.1</title></circle>
<circle cx="456.8" cy="153.5" r="4" fill="transparent"><title>2026-08-12 11:41 · alive rate: 97.8</title></circle>
<circle cx="478.5" cy="147.2" r="4" fill="transparent"><title>2026-08-12 12:48 · alive rate: 97.9</title></circle>
<circle cx="506.5" cy="222.2" r="4" fill="transparent"><title>2026-08-12 14:16 · alive rate: 96.7</title></circle>
<circle cx="529.5" cy="178.5" r="4" fill="transparent"><title>2026-08-12 15:28 · alive rate: 97.4</title></circle>
<circle cx="547.9" cy="159.7" r="4" fill="transparent"><title>2026-08-12 16:26 · alive rate: 97.7</title></circle>
<circle cx="567.5" cy="153.5" r="4" fill="transparent"><title>2026-08-12 17:27 · alive rate: 97.8</title></circle>
<circle cx="583.1" cy="166.0" r="4" fill="transparent"><title>2026-08-12 18:16 · alive rate: 97.6</title></circle>
<circle cx="608.5" cy="172.2" r="4" fill="transparent"><title>2026-08-12 19:35 · alive rate: 97.5</title></circle>
<circle cx="627.7" cy="159.7" r="4" fill="transparent"><title>2026-08-12 20:35 · alive rate: 97.7</title></circle>
<circle cx="647.6" cy="172.2" r="4" fill="transparent"><title>2026-08-12 21:37 · alive rate: 97.5</title></circle>
<circle cx="665.2" cy="166.0" r="4" fill="transparent"><title>2026-08-12 22:32 · alive rate: 97.6</title></circle>
<circle cx="684.2" cy="159.7" r="4" fill="transparent"><title>2026-08-12 23:32 · alive rate: 97.7</title></circle>
<circle cx="716.4" cy="172.2" r="4" fill="transparent"><title>2026-08-13 01:13 · alive rate: 97.5</title></circle>
<circle cx="744.2" cy="47.2" r="4" fill="transparent"><title>2026-08-13 02:40 · alive rate: 99.5</title></circle>
<circle cx="748.1" cy="41.0" r="4" fill="transparent"><title>2026-08-13 02:52 · alive rate: 99.6</title></circle>
<circle cx="754.0" cy="53.5" r="4" fill="transparent"><title>2026-08-13 03:10 · alive rate: 99.4</title></circle>
<polyline fill="none" stroke="#8c564b" stroke-width="2" stroke-linejoin="round" points="46.0,249.1 51.3,243.8 58.2,236.9 68.2,228.5 75.3,225.4 77.2,230.4 95.3,219.4 114.9,219.1 133.8,215.7 154.9,211.0 167.9,218.2 187.3,226.6 205.3,227.6 223.8,222.2 255.7,214.4 297.0,228.2 301.6,230.4 307.0,222.6 315.2,217.6 316.9,225.7 337.0,207.2 341.4,207.6 364.7,189.1 389.7,115.7 417.7,155.1 441.8,143.8 456.8,122.3 478.5,129.1 506.5,47.9 529.5,93.5 547.9,114.1 567.5,120.7 583.1,109.8 608.5,101.6 627.7,115.4 647.6,102.9 665.2,112.2 684.2,116.6 716.4,106.3 744.2,234.4 748.1,240.1 754.0,231.9"/>
<circle cx="46.0" cy="249.1" r="4" fill="transparent"><title>2026-08-11 14:15 · dead: 54</title></circle>
<circle cx="51.3" cy="243.8" r="4" fill="transparent"><title>2026-08-11 14:32 · dead: 71</title></circle>
<circle cx="58.2" cy="236.9" r="4" fill="transparent"><title>2026-08-11 14:53 · dead: 93</title></circle>
<circle cx="68.2" cy="228.5" r="4" fill="transparent"><title>2026-08-11 15:24 · dead: 120</title></circle>
<circle cx="75.3" cy="225.4" r="4" fill="transparent"><title>2026-08-11 15:47 · dead: 130</title></circle>
<circle cx="77.2" cy="230.4" r="4" fill="transparent"><title>2026-08-11 15:53 · dead: 114</title></circle>
<circle cx="95.3" cy="219.4" r="4" fill="transparent"><title>2026-08-11 16:49 · dead: 149</title></circle>
<circle cx="114.9" cy="219.1" r="4" fill="transparent"><title>2026-08-11 17:51 · dead: 150</title></circle>
<circle cx="133.8" cy="215.7" r="4" fill="transparent"><title>2026-08-11 18:50 · dead: 161</title></circle>
<circle cx="154.9" cy="211.0" r="4" fill="transparent"><title>2026-08-11 19:56 · dead: 176</title></circle>
<circle cx="167.9" cy="218.2" r="4" fill="transparent"><title>2026-08-11 20:36 · dead: 153</title></circle>
<circle cx="187.3" cy="226.6" r="4" fill="transparent"><title>2026-08-11 21:37 · dead: 126</title></circle>
<circle cx="205.3" cy="227.6" r="4" fill="transparent"><title>2026-08-11 22:33 · dead: 123</title></circle>
<circle cx="223.8" cy="222.2" r="4" fill="transparent"><title>2026-08-11 23:31 · dead: 140</title></circle>
<circle cx="255.7" cy="214.4" r="4" fill="transparent"><title>2026-08-12 01:11 · dead: 165</title></circle>
<circle cx="297.0" cy="228.2" r="4" fill="transparent"><title>2026-08-12 03:20 · dead: 121</title></circle>
<circle cx="301.6" cy="230.4" r="4" fill="transparent"><title>2026-08-12 03:35 · dead: 114</title></circle>
<circle cx="307.0" cy="222.6" r="4" fill="transparent"><title>2026-08-12 03:52 · dead: 139</title></circle>
<circle cx="315.2" cy="217.6" r="4" fill="transparent"><title>2026-08-12 04:17 · dead: 155</title></circle>
<circle cx="316.9" cy="225.7" r="4" fill="transparent"><title>2026-08-12 04:23 · dead: 129</title></circle>
<circle cx="337.0" cy="207.2" r="4" fill="transparent"><title>2026-08-12 05:25 · dead: 188</title></circle>
<circle cx="341.4" cy="207.6" r="4" fill="transparent"><title>2026-08-12 05:39 · dead: 187</title></circle>
<circle cx="364.7" cy="189.1" r="4" fill="transparent"><title>2026-08-12 06:52 · dead: 246</title></circle>
<circle cx="389.7" cy="115.7" r="4" fill="transparent"><title>2026-08-12 08:10 · dead: 481</title></circle>
<circle cx="417.7" cy="155.1" r="4" fill="transparent"><title>2026-08-12 09:38 · dead: 355</title></circle>
<circle cx="441.8" cy="143.8" r="4" fill="transparent"><title>2026-08-12 10:54 · dead: 391</title></circle>
<circle cx="456.8" cy="122.3" r="4" fill="transparent"><title>2026-08-12 11:41 · dead: 460</title></circle>
<circle cx="478.5" cy="129.1" r="4" fill="transparent"><title>2026-08-12 12:48 · dead: 438</title></circle>
<circle cx="506.5" cy="47.9" r="4" fill="transparent"><title>2026-08-12 14:16 · dead: 698</title></circle>
<circle cx="529.5" cy="93.5" r="4" fill="transparent"><title>2026-08-12 15:28 · dead: 552</title></circle>
<circle cx="547.9" cy="114.1" r="4" fill="transparent"><title>2026-08-12 16:26 · dead: 486</title></circle>
<circle cx="567.5" cy="120.7" r="4" fill="transparent"><title>2026-08-12 17:27 · dead: 465</title></circle>
<circle cx="583.1" cy="109.8" r="4" fill="transparent"><title>2026-08-12 18:16 · dead: 500</title></circle>
<circle cx="608.5" cy="101.6" r="4" fill="transparent"><title>2026-08-12 19:35 · dead: 526</title></circle>
<circle cx="627.7" cy="115.4" r="4" fill="transparent"><title>2026-08-12 20:35 · dead: 482</title></circle>
<circle cx="647.6" cy="102.9" r="4" fill="transparent"><title>2026-08-12 21:37 · dead: 522</title></circle>
<circle cx="665.2" cy="112.2" r="4" fill="transparent"><title>2026-08-12 22:32 · dead: 492</title></circle>
<circle cx="684.2" cy="116.6" r="4" fill="transparent"><title>2026-08-12 23:32 · dead: 478</title></circle>
<circle cx="716.4" cy="106.3" r="4" fill="transparent"><title>2026-08-13 01:13 · dead: 511</title></circle>
<circle cx="744.2" cy="234.4" r="4" fill="transparent"><title>2026-08-13 02:40 · dead: 101</title></circle>
<circle cx="748.1" cy="240.1" r="4" fill="transparent"><title>2026-08-13 02:52 · dead: 83</title></circle>
<circle cx="754.0" cy="231.9" r="4" fill="transparent"><title>2026-08-13 03:10 · dead: 109</title></circle>
<text x="46.0" y="288" font-size="9" text-anchor="start" fill="#666">2026-08-11 14:15</text>
<text x="223.8" y="288" font-size="9" text-anchor="middle" fill="#666">2026-08-11 23:31</text>
<text x="389.7" y="288" font-size="9" text-anchor="middle" fill="#666">2026-08-12 08:10</text>
<text x="583.1" y="288" font-size="9" text-anchor="middle" fill="#666">2026-08-12 18:16</text>
<text x="754.0" y="288" font-size="9" text-anchor="end" fill="#666">2026-08-13 03:10</text>
<line x1="14" y1="10" x2="32" y2="10" stroke="#f58518" stroke-width="2"/><text x="36" y="13" font-size="10" fill="#333">alive rate</text><line x1="116.0" y1="10" x2="134.0" y2="10" stroke="#8c564b" stroke-width="2"/><text x="138.0" y="13" font-size="10" fill="#333">dead</text>
</svg>